PathFileType	4	(X/Y/Z)	Patient4_TMGait_0pt2_01_right_12.trc.trc
DataRate	CameraRate	NumFrames	NumMarkers	Units	OrigDataRate	OrigDataStartFrame	OrigNumFrames
40.579710144928	40.579710144928	6	33	mm	40.579710144928	89	       141
Frame#	Time	Sacral			L.Shoulder			Chest			R.Shoulder			Neck			R.ASIS			L.ASIS			R.Thigh.Superior			R.Thigh.Lateral			R.Thigh.Inferior			R.Patella			L.Thigh.Superior			L.Thigh.Lateral			L.Thigh.Inferior			L.Patella			L.Shank.Superior			L.Shank.Lateral			L.Shank.Inferior			R.Shank.Superior			R.Shank.Lateral			R.Shank.Inferior			R.Heel			R.Midfoot.Superior			R.Midfoot.Lateral			R.Toe			L.Heel			L.Midfoot.Lateral			L.Midfoot.Superior			L.Toe			L.Elbow			L.Wrist			R.Elbow			R.Wrist			
		X1	Y1	Z1	X2	Y2	Z2	X3	Y3	Z3	X4	Y4	Z4	X5	Y5	Z5	X6	Y6	Z6	X7	Y7	Z7	X8	Y8	Z8	X9	Y9	Z9	X10	Y10	Z10	X11	Y11	Z11	X12	Y12	Z12	X13	Y13	Z13	X14	Y14	Z14	X15	Y15	Z15	X16	Y16	Z16	X17	Y17	Z17	X18	Y18	Z18	X19	Y19	Z19	X20	Y20	Z20	X21	Y21	Z21	X22	Y22	Z22	X23	Y23	Z23	X24	Y24	Z24	X25	Y25	Z25	X26	Y26	Z26	X27	Y27	Z27	X28	Y28	Z28	X29	Y29	Z29	X30	Y30	Z30	X31	Y31	Z31	X32	Y32	Z32	X33	Y33	Z33	

89	27.978571428571	797.672778181642	1014.998542185221	497.672762560100	945.675969707068	1429.724046331394	274.906452395999	1076.875880306960	1365.702181772376	416.664490395908	1026.423413951406	1445.069259408481	598.653873482873	954.675215280423	1497.244486043841	430.517141836301	1037.645334770981	940.471061118609	583.164293722205	988.808863150100	964.393425239074	313.510786799197	1037.349561351196	726.681777829589	554.401086301638	946.262635836177	629.469932199511	627.712001107522	1000.316092665330	564.271786353261	541.925925984843	983.393804627204	470.604375042749	553.148875396720	1051.428857496891	759.602777005276	349.068727652901	973.344960749111	635.083595178302	290.272758920984	1063.834615162432	566.271323749904	354.714825318660	1068.123966763658	497.489200345225	362.803160516937	1046.300996069123	424.490866105277	353.510328961865	964.658944048268	305.581992982996	298.138778957556	1021.728589679494	197.218729557065	370.681351347482	928.470865465556	394.803179582150	568.905182519109	838.103896863403	318.253146241674	645.107230344180	842.816008444946	213.054231528334	585.888746922506	664.972966456955	81.159345812657	583.237035497307	845.338145103516	103.632479989021	601.482931134693	752.725062061462	60.491054354980	649.676881719504	955.355913388955	36.555620190603	622.504183097140	898.451556289763	37.914188218730	403.654406691337	977.701266942771	35.835076611956	327.796423844394	1058.301153152074	98.082232370269	359.292094418986	1188.214198103796	49.287174541132	340.425616014726	841.061481882461	1092.613565179809	173.437810622261	886.458898610278	834.951855262827	192.828428247781	1242.204484637945	1190.481644776540	684.744082518334	1437.305627407489	1309.758048070006	576.325955329007	
90	28.003214285714	797.013595300143	1015.528121424210	491.595833895264	946.614517093734	1431.011311540506	271.009497535736	1076.455019323682	1366.689888509553	413.808414067108	1024.288628790084	1445.589788798299	595.527278405747	954.025157688958	1498.120820483480	426.950704321735	1036.445150309807	941.290066042482	578.842823632824	989.515324853242	964.965555058465	308.841241591249	1037.053735180899	727.537171569315	550.614217133157	946.005834006511	630.308544058280	623.795925145120	1000.834313325812	564.823383882232	538.497008916255	984.158183638392	470.427999776664	550.362263604457	1050.557214566518	759.116642977145	344.954648275961	971.395668177046	634.860623583317	286.856529205332	1061.124330349094	565.652119643378	351.764598343910	1064.835820214181	496.927696498548	360.339683896153	1042.805192577508	424.054197906264	351.462280361401	960.722333167263	305.166178264767	296.895512717010	1017.280695118080	196.984391660566	370.040983891324	928.126779513378	395.436983686723	566.494096868383	836.717574070657	320.371797633900	642.996879967167	840.721012182670	214.585238120469	584.752366544675	661.413054965621	85.035854421760	582.740575198695	842.104277213457	104.286229400064	601.384796925542	748.673403197971	63.047862732686	649.538373225846	950.532357687012	36.446626790230	622.856661881631	893.473084346811	37.920964182726	403.717168462927	972.695830127943	35.825723378562	327.842797232017	1053.344082631362	97.930940918021	359.287021513581	1183.252552806235	49.065068395529	340.395053094433	845.405312690962	1093.411359419661	166.729291953623	894.788397614556	836.545450798995	186.572187634965	1237.925017193708	1188.333158295663	682.185294072254	1440.857079991492	1298.804239615291	577.603692118288	
91	28.027857142857	796.287761368428	1015.828623461287	485.487751048898	947.539283837729	1432.269098130106	267.406257429048	1075.922261903336	1367.545116615195	411.264899938225	1021.952936964651	1445.867303737638	592.711269907800	953.294585892866	1498.865275382288	423.682185937787	1035.170024608806	941.955939549039	574.480452610024	990.195062938280	965.465333174628	304.171622645411	1037.223893131371	728.334710376497	546.600924004202	946.492904857276	630.858778005707	619.566855458232	1002.299707323375	565.255464444619	534.702279853082	986.031623032620	469.962158187602	547.294634309296	1049.874946902724	758.623070783547	340.899558106516	969.789484767402	634.553732569154	283.492212788271	1058.762549374053	565.021053775349	348.937668776635	1061.959901005069	496.309894073795	357.994564310318	1039.656833979248	423.546862850088	349.535055046697	957.102918368126	304.742689596645	295.742968780948	1012.979865021984	196.683558221895	369.477343486056	928.685654969636	395.867608389778	563.794481922365	835.951233853421	322.606511748341	640.473447481194	839.113135207557	216.190910546159	583.322898062227	658.157063814409	89.445297121513	581.644073905131	839.055936547885	105.061378663198	601.180298033067	744.646496597971	66.040348098715	649.026051732455	945.526655657778	36.352980275410	623.370671112582	888.517715954274	37.939401019413	403.787546127107	967.716227337039	35.835881767125	327.906739089755	1048.436115990892	97.755267574214	359.329446371554	1178.331675071510	48.752039920289	340.382943484866	850.317937820711	1094.069580038974	160.190971901408	904.089321405251	838.152228736423	180.652275202484	1233.036293159633	1185.310371963842	679.715540630338	1444.144899318987	1285.252201753327	579.576492546870	
92	28.052500000000	795.469724134718	1015.830847222954	479.352033810522	948.413746168221	1433.430694571603	264.113691856556	1075.248324735826	1368.192357158371	409.039924601125	1019.407900207375	1445.819270962612	590.216381519266	952.488774084498	1499.407414849266	420.723423518564	1033.791143761275	942.394411286625	570.068905346852	990.823290317840	965.847834417722	299.500930810815	1037.925470417595	729.044314081116	542.329341896223	947.840279146713	631.057634609102	614.983991841050	1004.862351466511	565.545397728709	530.501448325933	989.181770260379	469.182809283647	543.909432684783	1049.439026788534	758.124227919599	336.910303183130	968.642196000478	634.128970278399	280.186178882908	1056.889388461685	564.374613165410	346.248824320940	1059.661725532116	495.612037593264	355.778924546890	1036.986841906074	422.929129452022	347.741227747586	953.905570945916	304.299197146706	294.671119945891	1008.867844945061	196.294396109684	368.997607179349	930.302628270399	396.058229409347	560.745641102319	835.898809846804	324.986192381647	637.393195191079	838.078706019378	217.899608266970	581.471105821440	655.293990311588	94.497975465922	579.649493379110	836.216405780271	106.023064044486	600.735381665072	740.635371895659	69.578315847599	647.897995941150	940.295557703140	36.264805913359	624.010801751151	883.587311641979	37.969231031819	403.861737859160	962.764622050601	35.864847731784	327.984354975664	1043.579328390003	97.562540241297	359.416970941255	1173.454765572236	48.348060395843	340.389988940330	855.815745072314	1094.515553787830	153.897585201271	914.346064892613	839.713064908494	175.105392846493	1227.461963781968	1181.268637260949	677.336606008440	1446.840993455983	1268.779181247531	582.281695331246	
93	28.077142857143	794.533975045716	1015.467154921808	473.199684365557	949.193346074623	1434.419376966184	261.140348517595	1074.400871023694	1368.553740994585	407.130138054666	1016.647336374986	1445.365222332859	588.045104402294	951.611060273656	1499.672260608513	418.083657956723	1032.279459031804	942.529588597280	565.615053936669	991.378931500018	966.061933768061	294.838797878765	1039.202971059526	729.641660455236	537.794738254710	950.131960157319	630.858700133952	610.033989745191	1008.631356787988	565.684055896237	525.885986131684	993.728725795131	468.089448104113	540.192862043885	1049.298385537769	757.615972788165	332.996104964710	968.052987471913	633.550365695797	276.948834233586	1055.632503685809	563.703929125646	343.708228873537	1058.091722075352	494.808303684649	353.698356861646	1034.911136887408	422.159226532227	346.086650754359	951.216220543340	303.821204029289	293.663800703741	1004.978020274655	195.796813310135	368.600968883293	933.098178623158	395.985800328836	557.298244250572	836.633332208360	327.536426138964	633.614034011482	837.693151406462	219.742618230920	579.057839609829	652.918823443513	100.279746379928	576.438513957684	833.614050245418	107.242280391627	599.876210549103	736.645436684489	73.755849115255	645.880653650043	934.821510263098	36.171021236878	624.693500510409	878.681506663747	38.010391503563	403.934816675379	957.841169107199	35.909617352305	328.070425685336	1038.773237358299	97.359586967822	359.543022279171	1168.622286139505	47.856141257374	340.415756563968	861.885868178893	1094.674434170626	147.920060491194	925.533357264724	841.172287678651	169.960390784328	1221.111083845294	1176.083125797844	675.057802488694	1448.523833460864	1249.122278687347	585.729957823961	
94	28.101785714286	793.459271300919	1014.679560597685	467.049838210450	949.831503515465	1435.156326248706	258.484433158664	1073.348797508487	1368.558415434695	405.523012395499	1013.667635739681	1444.436916337380	586.191108062121	950.661736868907	1499.589566365969	415.765149069135	1030.610443411514	942.293169938175	561.142458251673	991.849111484880	966.056306687035	290.206887952136	1041.070574837322	730.112416206671	533.024889313932	953.404807006077	630.241870181288	604.739793956535	1013.653786086903	565.679810433873	520.886134794300	999.721471915221	466.709585059361	536.159968982110	1049.487107194102	757.086706001822	329.166381955724	968.089385766868	632.783943820560	273.792979341997	1055.090231567533	562.994856114429	341.318074307822	1057.365993004650	493.874021506502	351.750062472078	1033.515396853156	421.198315016317	344.568521423795	949.089296531417	303.294086683161	292.699574905574	1001.331371998756	195.175703720486	368.277354462945	937.137301650417	395.646473554796	553.422681919134	838.196497284418	330.272860377059	629.015871387586	838.012384818114	221.748209032395	575.949879562320	651.125123081626	106.829790514942	571.715176693755	831.286647458835	108.786416256134	598.403322436651	732.707814831770	78.630212444672	642.701363216407	929.131245766521	36.059901812575	625.281162563044	873.797938715945	38.062960987170	404.000562757771	952.944314439240	35.965239779357	328.158356903597	1034.014555388354	97.152490317849	359.696647202252	1163.831806596412	47.284074624415	340.458334944922	868.486200062995	1094.479749230341	142.316375633371	937.617033107255	842.489795881709	165.234957606160	1213.871922226037	1169.665985832466	672.898346915091	1448.683412943846	1226.114311653243	589.902205114141	
